<?xml version="1.0" encoding="UTF-8" standalone="no"?>
<svg width="522px" height="65px" viewBox="0 0 522 65" version="1.1" xmlns="http://www.w3.org/2000/svg" xmlns:xlink="http://www.w3.org/1999/xlink">
    <!-- Generator: Sketch 50.2 (55047) - http://www.bohemiancoding.com/sketch -->
    <title>Group 2</title>
    <desc>Created with Sketch.</desc>
    <defs></defs>
    <g id="Page-1" stroke="none" stroke-width="1" fill="none" fill-rule="evenodd">
        <g id="Light" transform="translate(-66.000000, -35.000000)">
            <g id="Group-2" transform="translate(66.000000, 26.000000)">
                <text id="BigBlueSwarm" font-family="NotoSans-Bold, Noto Sans" font-size="58" font-weight="bold" letter-spacing="1.208334" fill="#1D2D5F">
                    <tspan x="91.0795858" y="62">BigBlueSwarm</tspan>
                </text>
                <g id="logo" transform="translate(0.000000, 9.000000)" fill-rule="nonzero">
                    <path d="M46.3453419,56.6558435 C44.8309706,55.14616 44,53.1373191 44,50.9982191 C44,48.8631897 44.8324972,46.8533312 46.3422888,45.3451741 C47.8541158,43.8324376 49.8656447,43 52.0033712,43 C54.14008,43 56.1495734,43.8309111 57.659365,45.34263 C60.7802117,48.4637621 60.7802117,53.5413261 57.659365,56.6609318 C56.1495734,58.1701065 54.1410977,59 52.0048978,59 C49.8666624,59 47.8561513,58.1665448 46.3453419,56.6558435 Z" id="Shape" fill="#40CEEE"></path>
                    <path d="M2.34269181,13.6551242 C0.832787511,12.1451239 0,10.1360298 0,7.9987281 C0,5.86142644 0.830243871,3.85385863 2.33963944,2.34589335 C3.85361356,0.832331712 5.8646148,0 8.00178055,0 C10.1374201,0 12.1458777,0.832331712 13.6547646,2.34182327 C15.1677212,3.85385863 16,5.86397024 16,8.00076314 C16,10.1380648 15.1672125,12.1471589 13.655782,13.659703 C12.1458777,15.168177 10.1384376,16 8.00330673,16 C5.86512353,16 3.85513974,15.166142 2.34269181,13.6551242 Z" id="Shape" fill="#40CEEE"></path>
                    <path d="M45.3417792,13.6566504 C42.221529,10.5374416 42.2189839,5.46306719 45.3366891,2.34589335 C46.849985,0.833349232 48.8605866,0 51.0009867,0 C53.1378236,0 55.1479162,0.833349232 56.6601941,2.34284079 C59.7799353,5.46103215 59.7799353,10.5384591 56.6601941,13.6617381 C55.1504613,15.168177 53.1398596,16 51.0030227,16 C48.8631317,16 46.853548,15.1671595 45.3417792,13.6566504 Z" id="Shape" fill="#40CEEE"></path>
                    <path d="M2.37751388,57.6183822 C0.84346734,56.0848704 0,54.0467304 0,51.8763643 C0,49.7080643 0.847599452,47.6683748 2.38164599,46.1343464 C2.70291769,45.8110125 3.06551051,45.51557 3.52572447,45.2035992 C3.66466674,45.1070123 3.79276221,45.0305691 3.92447327,44.9505104 C4.22508441,44.7779968 4.52466252,44.6199454 4.80409659,44.4918514 C4.95646822,44.4231559 5.11245544,44.3534273 5.2772234,44.2909299 C5.56905381,44.1819467 5.89497413,44.0853597 6.26738072,43.9970369 C6.34227524,43.9774096 6.40735601,43.9603648 6.47398631,43.941254 C6.51530743,43.9298909 6.55507901,43.9154286 6.59794967,43.905615 L8.40574862,43.7832026 C8.63508083,43.7940493 8.88094149,43.8219407 9.14229757,43.8570632 C9.30706553,43.8782401 9.39022428,43.8844382 9.47338303,43.8885702 L9.62885374,43.909747 C9.83339328,43.9154286 9.96562086,43.9185277 10.0962989,43.9185277 C13.2129443,43.9185277 16.2898181,42.5911025 18.537687,40.2776638 C20.7762586,37.9750717 22.0102105,34.8780906 21.9208536,31.7774938 L21.9012261,31.5889685 C21.8852141,31.5027117 21.880049,31.4143888 21.8738508,31.3276155 C21.8655866,31.2232809 21.8573224,31.1199793 21.8444095,31.0151282 L21.8242655,30.8333175 C21.806704,30.6762991 21.789659,30.5239293 21.7788123,30.3694934 L21.9177545,28.5544848 C21.9265353,28.5090321 21.9425472,28.4677115 21.95546,28.4238083 L21.9880004,28.3112096 C22.0711592,27.9677319 22.1605161,27.6227046 22.2906776,27.289557 C22.3573079,27.0989656 22.4208391,26.958992 22.4905685,26.8164358 C22.6346759,26.4987835 22.7849815,26.2110886 22.9605963,25.9146131 C23.0375568,25.7865191 23.1119349,25.6573922 23.1997422,25.5313643 C23.5287616,25.053078 23.8262737,24.6868739 24.1361821,24.3780022 C25.6707451,22.8439738 27.7094259,22 29.8829167,22 C32.0517589,22 34.0940552,22.8434573 35.6291348,24.3764527 C38.792783,27.5431624 38.7902004,32.6963613 35.6219036,35.8646206 C35.3016649,36.185372 34.9390721,36.4802979 34.4762756,36.7964008 C34.3414654,36.8888557 34.21337,36.9642658 34.0842415,37.0412255 C33.7934441,37.2147721 33.4979981,37.370241 33.2061677,37.5050495 C33.0460484,37.5768441 32.8885116,37.6486387 32.7351069,37.7070041 C32.423649,37.8221854 32.0946296,37.9208384 31.7485652,37.997798 L31.5538395,38.0515149 C31.5094193,38.062878 31.4660321,38.0768237 31.4226449,38.0887034 L29.5972845,38.2178304 C29.3834477,38.2085333 29.1587641,38.1806418 28.9216842,38.1496514 L28.7594988,38.1300241 C28.7052648,38.1202104 28.6195235,38.1150453 28.5342987,38.1098803 L28.3767619,38.0861209 C28.1701563,38.0809558 28.0389618,38.0794063 27.9067342,38.0794063 C24.7906053,38.0794063 21.7147645,39.4057985 19.4679287,41.7182042 C17.2278075,44.0218293 15.9948886,47.1229425 16.0832125,50.2230227 L16.1028401,50.4068995 C16.1193685,50.4947058 16.1235006,50.5814791 16.1307318,50.6703185 C16.138996,50.7741365 16.1477768,50.8779546 16.1601731,50.9817727 C16.1632722,51.0432371 16.176185,51.1553194 16.1906474,51.2653355 C16.2045933,51.3892974 16.2211218,51.5106768 16.2211218,51.6346386 L16.0899272,53.4181403 C16.0811465,53.4537793 16.0232969,53.6552174 16.007285,53.7177149 C15.9194776,54.0921831 15.8197904,54.4242976 15.7087399,54.7223227 C15.6483077,54.8881217 15.5873591,55.0322274 15.5150471,55.1814981 C15.3745553,55.4903698 15.2211507,55.7858123 15.0470855,56.0864199 C14.9706414,56.2093488 14.8802514,56.3544875 14.7877954,56.4929116 C14.4861513,56.9309103 14.1865732,57.2996969 13.865818,57.6219978 C12.335387,59.1549931 10.2961898,60 8.12683107,60 C5.95540627,59.997934 3.91362648,59.1518941 2.37751388,57.6183822 Z" id="Shape" fill="#40CEEE"></path>
                    <path d="M30.1277297,60 C27.9555485,60 25.9145763,59.1538566 24.3793272,57.619124 C22.8451112,56.0854245 22.0010341,54.0465186 22.0000009,51.8764036 C21.9989678,49.7088714 22.8435615,47.6689323 24.3762277,46.139882 C24.6887532,45.8247737 25.0441541,45.5360104 25.5302475,45.2002393 C25.6500919,45.118621 25.7802678,45.0390691 25.9156095,44.9610669 C26.2141875,44.7823333 26.501401,44.630978 26.7994625,44.4946032 C26.9585664,44.4222832 27.1125046,44.351513 27.2705753,44.2921073 C27.5722528,44.180528 27.900792,44.0834126 28.2494774,44.0069601 C28.2494774,44.0069601 28.5351412,43.9248253 28.5718178,43.9144939 L30.409261,43.7796689 C30.6262208,43.7905168 30.8602275,43.8209945 31.1045656,43.8530219 L31.2404238,43.8705854 C31.3308237,43.8798836 31.4062431,43.8865991 31.482179,43.8876322 C31.5131733,43.8902151 31.5426178,43.8902151 31.5720624,43.8927979 L31.6294018,43.9015796 L31.7058543,43.9088116 C31.8401627,43.9129442 31.9760209,43.9170768 32.1113625,43.9170768 C35.2216368,43.915527 38.2931682,42.5910389 40.5371528,40.2804165 C42.7759717,37.9790925 44.0090268,34.8770833 43.9212097,31.7761072 L43.9103617,31.3979772 L43.8767846,31.3566515 C43.8752349,31.3437373 43.8752349,31.3282401 43.8736852,31.3153258 C43.869036,31.2264756 43.8633538,31.1371088 43.8556052,31.047742 L43.8246109,30.7868737 C43.8080807,30.6443 43.7894841,30.5027596 43.7843184,30.3596694 L43.9103617,28.6012615 C43.9201766,28.5589027 43.9831982,28.3409097 43.9981788,28.2753052 C44.1004599,27.8553329 44.1918929,27.5479731 44.2952072,27.274707 C44.3525465,27.1114706 44.4233168,26.961665 44.4946036,26.8041108 C44.6252961,26.5205133 44.7771679,26.2332998 44.9636501,25.9156086 L44.9982603,25.8577526 C45.0607654,25.751339 45.1206877,25.6454419 45.1950739,25.5431609 C45.5287788,25.0586172 45.8242574,24.6928849 46.1352332,24.380876 C47.6709989,22.8456268 49.7130043,22 51.8841523,22 C54.0532342,22 56.0921401,22.8445937 57.6258395,24.3777766 C60.7913868,27.5443571 60.7913868,32.7007694 57.6258395,35.870966 C57.3189963,36.1772926 56.9527474,36.4727713 56.4754358,36.8028602 C56.382453,36.8653653 56.2946359,36.9180555 56.2063023,36.9707458 L56.0647618,37.0590794 C55.793562,37.2202496 55.4965336,37.3747043 55.2093201,37.5069465 C55.0471168,37.579783 54.8942118,37.6495201 54.7320085,37.7109921 C54.4473779,37.8179223 54.1348524,37.9088388 53.739159,38.0028547 C53.6606402,38.0214513 53.5960688,38.041081 53.5335637,38.0601941 C53.4891386,38.0710421 53.4478129,38.0855061 53.4044209,38.095321 L51.5995217,38.219298 C51.3350373,38.20845 51.0498901,38.168674 50.7719749,38.1325141 C50.677959,38.1216661 50.6046059,38.1175335 50.5328025,38.1144341 C50.5054242,38.1123678 50.478046,38.1123678 50.4501511,38.1087518 L50.2967295,38.0922215 C50.1613879,38.0870558 50.0281126,38.084473 49.8953538,38.084473 C46.7830133,38.084473 43.7104487,39.4099943 41.4638813,41.7206166 C39.2271287,44.0255567 37.9945901,47.124983 38.0855066,50.2280253 L38.0880895,50.3194584 L38.1056529,50.4083086 C38.1232163,50.5002583 38.1268323,50.5942742 38.1335478,50.6867404 C38.1397466,50.7823061 38.1469786,50.8752889 38.1578266,50.9672385 C38.164542,51.043691 38.1748734,51.1418395 38.1857214,51.2374052 C38.2012186,51.3748131 38.2182654,51.512221 38.2213648,51.6501455 L38.0880895,53.4328322 C38.0777581,53.471575 38.0085376,53.7122971 38.0085376,53.7122971 C37.9217536,54.0888774 37.8256714,54.4210326 37.7115092,54.7325249 C37.6577858,54.878198 37.5932144,55.0192219 37.5276099,55.1664446 L37.5053974,55.2186183 C37.3705723,55.5094478 37.219217,55.7956282 37.0508149,56.0761263 C36.9686801,56.2156004 36.8860287,56.3499089 36.7992448,56.4790517 C36.4815536,56.9413828 36.1819424,57.3076317 35.8611517,57.6315217 C34.3321015,59.1574726 32.2968115,60 30.1277297,60 Z" id="Shape" fill="#1D2D5F"></path>
                    <path d="M8.12654678,38 C5.95543947,38 3.91553874,37.1559573 2.38186812,35.6223204 C0.846647823,34.0861007 0.00103690961,32.0462448 3.78692656e-06,29.8757018 C-0.00206245843,27.7087746 0.841482209,25.6709848 2.37566939,24.138381 C2.68973868,23.8238021 3.05598067,23.5262693 3.52708461,23.2018759 C3.65002621,23.1192279 3.78846465,23.0345137 3.92690309,22.9518657 C4.2073959,22.7860532 4.494604,22.6336709 4.80040832,22.4926528 C4.95744296,22.4208523 5.11344449,22.3506015 5.27926068,22.2886155 C5.57783313,22.1785904 5.90739927,22.0819955 6.250396,22.0050296 L6.45650397,21.9476925 C6.49472951,21.9363284 6.53192193,21.9234147 6.56963091,21.9151499 L8.40807271,21.7829131 C8.64724061,21.7932441 8.90552128,21.8268198 9.1751663,21.8629783 L9.23198805,21.8707266 C9.32651878,21.8810576 9.39935392,21.8841569 9.47373876,21.8882893 C9.50008339,21.8893224 9.52694458,21.8893224 9.55277264,21.8934548 L9.63128997,21.9063685 L9.70619136,21.9094678 C9.84256355,21.9136002 9.97635294,21.916183 10.111692,21.916183 C13.2213913,21.916183 16.2923484,20.5917488 18.537324,18.279671 C20.7750677,15.9758581 22.0070665,12.8750085 21.9177014,9.77312581 L21.9151186,9.68376266 L21.8975555,9.59594916 C21.8784428,9.49728811 21.87586,9.39811051 21.8696612,9.29738327 C21.8644956,9.21576837 21.85933,9.13415347 21.851065,9.04892272 L21.8231707,8.79891253 C21.8040579,8.65066268 21.7854617,8.49931353 21.7818458,8.34796439 L21.9037543,6.64179977 L21.9146021,6.60254197 L21.9146021,6.56948277 C21.9249333,6.53074152 21.9910531,6.30294298 21.9910531,6.30294298 C22.0938488,5.86645823 22.1857968,5.55136274 22.2896256,5.2729423 C22.3469639,5.11952695 22.4187659,4.9661116 22.4921176,4.80804731 C22.6243573,4.51619656 22.7793257,4.21969687 22.9575394,3.91906477 L22.9849172,3.87257527 C23.0556861,3.75480188 23.1249053,3.63857813 23.2044557,3.52080473 C23.5262734,3.05436009 23.8222631,2.68915925 24.1316833,2.38129545 C25.6679368,0.845592333 27.7088706,0 29.881011,0 C32.0516018,0 34.090986,0.844559233 35.6267228,2.37819615 C38.7932438,5.54619724 38.7901445,10.700333 35.6231069,13.8662679 C35.3095542,14.1803303 34.9360803,14.4840617 34.478407,14.7945083 C34.3544322,14.8823218 34.2475041,14.9453409 34.1364434,15.0109427 L34.0765222,15.0455516 C33.7789829,15.2232447 33.484543,15.3782097 33.2081826,15.505281 C33.0444327,15.5806973 32.891014,15.649915 32.7350124,15.7077686 C32.4297247,15.8219262 32.1058407,15.9169714 31.741665,16.001169 C31.6652139,16.0197648 31.5959947,16.0399103 31.5267755,16.0585061 C31.4844174,16.0698702 31.442576,16.083817 31.3991848,16.094148 L29.5989686,16.2196697 C29.3716816,16.2088221 29.1273481,16.1783457 28.8716502,16.1447699 L28.7611061,16.1313396 C28.6779397,16.1210086 28.6014886,16.1179093 28.5271038,16.1127438 C28.4966267,16.1111942 28.4666661,16.1111942 28.4367055,16.1060287 L28.3762679,16.0977639 L28.297234,16.0915653 C28.1624115,16.0863998 28.0286221,16.083817 27.8937996,16.083817 C24.7835837,16.083817 21.71211,17.4082512 19.4671344,19.7177462 C17.2283576,22.0215592 15.9953257,25.1239584 16.0836577,28.2268742 L16.0862405,28.3183035 L16.1022539,28.4071501 C16.1208501,28.4980629 16.1249826,28.5915585 16.1311813,28.6845375 C16.13738,28.7795827 16.1451285,28.8725617 16.1554597,28.9681234 C16.1626915,29.0435397 16.1740559,29.1406511 16.1859368,29.237246 C16.2009171,29.3736152 16.2184802,29.5063685 16.221063,29.6406715 L16.0908895,31.4114049 C16.0810749,31.4568613 16.0660946,31.5033508 16.052664,31.5508734 L16.0061735,31.7104873 C15.9152587,32.1077143 15.8196948,32.4362401 15.7117335,32.730157 C15.6538786,32.8835724 15.5794938,33.0421532 15.5056255,33.205383 C15.3718361,33.4962006 15.2210002,33.7854686 15.0448528,34.078869 C14.9606533,34.2188541 14.8826525,34.3505743 14.7974199,34.4766125 C14.4642379,34.9606199 14.1780629,35.3149732 13.8639936,35.6259362 C12.3308395,37.157507 10.2935216,38 8.12654678,38 Z" id="Shape" fill="#1D2D5F"></path>
                </g>
            </g>
        </g>
    </g>
</svg>